# ProBuilder 4.1.0
# https://unity3d.com/unity/features/worldbuilding/probuilder
# 29/07/2020 22:38:43

mtllib ./Triangle.mtl
o Triangle

g Triangle
v -9.536743E-07 -0.5 2.5
v -2.5 -0.5 -2.5
v -9.536743E-07 0.4999999 2.5
v -2.5 0.5 -2.5
v 2.5 -0.5 -2.5
v 2.5 0.5 -2.5

vt 2.236068 -0.5
vt -3.354102 -0.5
vt 2.236068 0.4999999
vt -3.354102 0.5
vt 2.5 -0.5
vt -2.5 -0.5
vt 2.5 0.5
vt -2.5 0.5
vt 3.354102 -0.5
vt -2.236068 -0.5
vt 3.354102 0.5
vt -2.236068 0.4999999
vt 9.536743E-07 2.5
vt -2.5 -2.5
vt 2.5 -2.5

vn -0.8944272 0 0.4472135
vn 0 0 -1
vn 0.8944271 0 0.4472137
vn 0 1 1.192093E-08
vn 0 -1 0

usemtl ProBuilderDefault
f 6/14/4 4/15/4 3/13/4
f 1/13/5 2/14/5 5/15/5
f 4/4/1 2/2/1 1/1/1
f 1/1/1 3/3/1 4/4/1
f 6/8/2 5/6/2 2/5/2
f 2/5/2 4/7/2 6/8/2
f 3/12/3 1/10/3 5/9/3
f 5/9/3 6/11/3 3/12/3

