# ProBuilder 4.1.0
# https://unity3d.com/unity/features/worldbuilding/probuilder
# 02/07/2020 12:57:32

mtllib ./vue1.mtl
o vue1

g Cube
v 5.896021 -0.9665197 6.920688
v -6.896021 -0.9665197 6.920688
v 5.896021 1.966519 6.920688
v -6.896021 1.966519 6.920688
v -1 0 -1
v -1 1 -1
v 0 0 -1
v 0 1 -1

vt 5.896021 -0.9665197
vt -6.896021 -0.9665197
vt 5.896021 1.966519
vt -6.896021 1.966519
vt 9.669182 -0.9665197
vt -0.2050456 0
vt 9.669182 1.966519
vt -0.2050456 1
vt 1 0
vt 0 0
vt 1 1
vt 0 1
vt 0.8021578 0
vt -9.07207 -0.9665197
vt 0.8021578 1
vt -9.07207 1.966519
vt -5.896021 7.107928
vt 6.896021 7.107928
vt 0 -0.8715109
vt 1 -0.8715109
vt 0 -0.9926371
vt -1 -0.9926371
vt 5.896021 6.986802
vt -6.896021 6.986802

vn 0 0 1
vn -0.8021578 0 -0.5971122
vn 0 0 -1
vn 0.8021578 0 -0.5971122
vn 0 0.9926371 -0.1211262
vn 0 -0.9926372 -0.1211263

usemtl ProBuilderDefault
f 3/3/1 4/4/1 2/2/1 1/1/1
f 4/7/2 6/8/2 5/6/2 2/5/2
f 6/11/3 8/12/3 7/10/3 5/9/3
f 8/15/4 3/16/4 1/14/4 7/13/4
f 8/19/5 6/20/5 4/18/5 3/17/5
f 1/23/6 2/24/6 5/22/6 7/21/6

